<?xml version="1.0" encoding="utf-8"?>
<svg xmlns="http://www.w3.org/2000/svg" xmlns:xlink="http://www.w3.org/1999/xlink" width="600" height="400" viewBox="0 0 2400 1600">
<defs>
  <clipPath id="clip440">
    <rect x="0" y="0" width="2400" height="1600"/>
  </clipPath>
</defs>
<path clip-path="url(#clip440)" d="M0 1600 L2400 1600 L2400 0 L0 0  Z" fill="#ffffff" fill-rule="evenodd" fill-opacity="1"/>
<defs>
  <clipPath id="clip441">
    <rect x="480" y="0" width="1681" height="1600"/>
  </clipPath>
</defs>
<path clip-path="url(#clip440)" d="M235.283 1423.18 L2352.76 1423.18 L2352.76 47.2441 L235.283 47.2441  Z" fill="#ffffff" fill-rule="evenodd" fill-opacity="1"/>
<defs>
  <clipPath id="clip442">
    <rect x="235" y="47" width="2118" height="1377"/>
  </clipPath>
</defs>
<polyline clip-path="url(#clip442)" style="stroke:#000000; stroke-linecap:round; stroke-linejoin:round; stroke-width:2; stroke-opacity:0.1; fill:none" points="295.211,1423.18 295.211,47.2441 "/>
<polyline clip-path="url(#clip442)" style="stroke:#000000; stroke-linecap:round; stroke-linejoin:round; stroke-width:2; stroke-opacity:0.1; fill:none" points="763.121,1423.18 763.121,47.2441 "/>
<polyline clip-path="url(#clip442)" style="stroke:#000000; stroke-linecap:round; stroke-linejoin:round; stroke-width:2; stroke-opacity:0.1; fill:none" points="1231.03,1423.18 1231.03,47.2441 "/>
<polyline clip-path="url(#clip442)" style="stroke:#000000; stroke-linecap:round; stroke-linejoin:round; stroke-width:2; stroke-opacity:0.1; fill:none" points="1698.94,1423.18 1698.94,47.2441 "/>
<polyline clip-path="url(#clip442)" style="stroke:#000000; stroke-linecap:round; stroke-linejoin:round; stroke-width:2; stroke-opacity:0.1; fill:none" points="2166.85,1423.18 2166.85,47.2441 "/>
<polyline clip-path="url(#clip440)" style="stroke:#000000; stroke-linecap:round; stroke-linejoin:round; stroke-width:4; stroke-opacity:1; fill:none" points="235.283,1423.18 2352.76,1423.18 "/>
<polyline clip-path="url(#clip440)" style="stroke:#000000; stroke-linecap:round; stroke-linejoin:round; stroke-width:4; stroke-opacity:1; fill:none" points="295.211,1423.18 295.211,1404.28 "/>
<polyline clip-path="url(#clip440)" style="stroke:#000000; stroke-linecap:round; stroke-linejoin:round; stroke-width:4; stroke-opacity:1; fill:none" points="763.121,1423.18 763.121,1404.28 "/>
<polyline clip-path="url(#clip440)" style="stroke:#000000; stroke-linecap:round; stroke-linejoin:round; stroke-width:4; stroke-opacity:1; fill:none" points="1231.03,1423.18 1231.03,1404.28 "/>
<polyline clip-path="url(#clip440)" style="stroke:#000000; stroke-linecap:round; stroke-linejoin:round; stroke-width:4; stroke-opacity:1; fill:none" points="1698.94,1423.18 1698.94,1404.28 "/>
<polyline clip-path="url(#clip440)" style="stroke:#000000; stroke-linecap:round; stroke-linejoin:round; stroke-width:4; stroke-opacity:1; fill:none" points="2166.85,1423.18 2166.85,1404.28 "/>
<path clip-path="url(#clip440)" d="M295.211 1454.1 Q291.6 1454.1 289.772 1457.66 Q287.966 1461.2 287.966 1468.33 Q287.966 1475.44 289.772 1479.01 Q291.6 1482.55 295.211 1482.55 Q298.846 1482.55 300.651 1479.01 Q302.48 1475.44 302.48 1468.33 Q302.48 1461.2 300.651 1457.66 Q298.846 1454.1 295.211 1454.1 M295.211 1450.39 Q301.021 1450.39 304.077 1455 Q307.156 1459.58 307.156 1468.33 Q307.156 1477.06 304.077 1481.67 Q301.021 1486.25 295.211 1486.25 Q289.401 1486.25 286.322 1481.67 Q283.267 1477.06 283.267 1468.33 Q283.267 1459.58 286.322 1455 Q289.401 1450.39 295.211 1450.39 Z" fill="#000000" fill-rule="nonzero" fill-opacity="1" /><path clip-path="url(#clip440)" d="M737.809 1481.64 L745.448 1481.64 L745.448 1455.28 L737.138 1456.95 L737.138 1452.69 L745.402 1451.02 L750.077 1451.02 L750.077 1481.64 L757.716 1481.64 L757.716 1485.58 L737.809 1485.58 L737.809 1481.64 Z" fill="#000000" fill-rule="nonzero" fill-opacity="1" /><path clip-path="url(#clip440)" d="M777.161 1454.1 Q773.55 1454.1 771.721 1457.66 Q769.915 1461.2 769.915 1468.33 Q769.915 1475.44 771.721 1479.01 Q773.55 1482.55 777.161 1482.55 Q780.795 1482.55 782.6 1479.01 Q784.429 1475.44 784.429 1468.33 Q784.429 1461.2 782.6 1457.66 Q780.795 1454.1 777.161 1454.1 M777.161 1450.39 Q782.971 1450.39 786.026 1455 Q789.105 1459.58 789.105 1468.33 Q789.105 1477.06 786.026 1481.67 Q782.971 1486.25 777.161 1486.25 Q771.351 1486.25 768.272 1481.67 Q765.216 1477.06 765.216 1468.33 Q765.216 1459.58 768.272 1455 Q771.351 1450.39 777.161 1450.39 Z" fill="#000000" fill-rule="nonzero" fill-opacity="1" /><path clip-path="url(#clip440)" d="M1209.8 1481.64 L1226.12 1481.64 L1226.12 1485.58 L1204.18 1485.58 L1204.18 1481.64 Q1206.84 1478.89 1211.43 1474.26 Q1216.03 1469.61 1217.21 1468.27 Q1219.46 1465.74 1220.34 1464.01 Q1221.24 1462.25 1221.24 1460.56 Q1221.24 1457.8 1219.3 1456.07 Q1217.37 1454.33 1214.27 1454.33 Q1212.07 1454.33 1209.62 1455.09 Q1207.19 1455.86 1204.41 1457.41 L1204.41 1452.69 Q1207.24 1451.55 1209.69 1450.97 Q1212.14 1450.39 1214.18 1450.39 Q1219.55 1450.39 1222.74 1453.08 Q1225.94 1455.77 1225.94 1460.26 Q1225.94 1462.39 1225.13 1464.31 Q1224.34 1466.2 1222.24 1468.8 Q1221.66 1469.47 1218.55 1472.69 Q1215.45 1475.88 1209.8 1481.64 Z" fill="#000000" fill-rule="nonzero" fill-opacity="1" /><path clip-path="url(#clip440)" d="M1245.94 1454.1 Q1242.33 1454.1 1240.5 1457.66 Q1238.69 1461.2 1238.69 1468.33 Q1238.69 1475.44 1240.5 1479.01 Q1242.33 1482.55 1245.94 1482.55 Q1249.57 1482.55 1251.38 1479.01 Q1253.21 1475.44 1253.21 1468.33 Q1253.21 1461.2 1251.38 1457.66 Q1249.57 1454.1 1245.94 1454.1 M1245.94 1450.39 Q1251.75 1450.39 1254.8 1455 Q1257.88 1459.58 1257.88 1468.33 Q1257.88 1477.06 1254.8 1481.67 Q1251.75 1486.25 1245.94 1486.25 Q1240.13 1486.25 1237.05 1481.67 Q1233.99 1477.06 1233.99 1468.33 Q1233.99 1459.58 1237.05 1455 Q1240.13 1450.39 1245.94 1450.39 Z" fill="#000000" fill-rule="nonzero" fill-opacity="1" /><path clip-path="url(#clip440)" d="M1687.78 1466.95 Q1691.14 1467.66 1693.02 1469.93 Q1694.91 1472.2 1694.91 1475.53 Q1694.91 1480.65 1691.4 1483.45 Q1687.88 1486.25 1681.4 1486.25 Q1679.22 1486.25 1676.9 1485.81 Q1674.61 1485.39 1672.16 1484.54 L1672.16 1480.02 Q1674.1 1481.16 1676.42 1481.74 Q1678.73 1482.32 1681.26 1482.32 Q1685.65 1482.32 1687.95 1480.58 Q1690.26 1478.84 1690.26 1475.53 Q1690.26 1472.48 1688.11 1470.77 Q1685.98 1469.03 1682.16 1469.03 L1678.13 1469.03 L1678.13 1465.19 L1682.34 1465.19 Q1685.79 1465.19 1687.62 1463.82 Q1689.45 1462.43 1689.45 1459.84 Q1689.45 1457.18 1687.55 1455.77 Q1685.68 1454.33 1682.16 1454.33 Q1680.24 1454.33 1678.04 1454.75 Q1675.84 1455.16 1673.2 1456.04 L1673.2 1451.88 Q1675.86 1451.14 1678.18 1450.77 Q1680.52 1450.39 1682.58 1450.39 Q1687.9 1450.39 1691 1452.83 Q1694.1 1455.23 1694.1 1459.35 Q1694.1 1462.22 1692.46 1464.21 Q1690.82 1466.18 1687.78 1466.95 Z" fill="#000000" fill-rule="nonzero" fill-opacity="1" /><path clip-path="url(#clip440)" d="M1713.78 1454.1 Q1710.17 1454.1 1708.34 1457.66 Q1706.53 1461.2 1706.53 1468.33 Q1706.53 1475.44 1708.34 1479.01 Q1710.17 1482.55 1713.78 1482.55 Q1717.41 1482.55 1719.22 1479.01 Q1721.05 1475.44 1721.05 1468.33 Q1721.05 1461.2 1719.22 1457.66 Q1717.41 1454.1 1713.78 1454.1 M1713.78 1450.39 Q1719.59 1450.39 1722.65 1455 Q1725.72 1459.58 1725.72 1468.33 Q1725.72 1477.06 1722.65 1481.67 Q1719.59 1486.25 1713.78 1486.25 Q1707.97 1486.25 1704.89 1481.67 Q1701.84 1477.06 1701.84 1468.33 Q1701.84 1459.58 1704.89 1455 Q1707.97 1450.39 1713.78 1450.39 Z" fill="#000000" fill-rule="nonzero" fill-opacity="1" /><path clip-path="url(#clip440)" d="M2155.02 1455.09 L2143.22 1473.54 L2155.02 1473.54 L2155.02 1455.09 M2153.8 1451.02 L2159.68 1451.02 L2159.68 1473.54 L2164.61 1473.54 L2164.61 1477.43 L2159.68 1477.43 L2159.68 1485.58 L2155.02 1485.58 L2155.02 1477.43 L2139.42 1477.43 L2139.42 1472.92 L2153.8 1451.02 Z" fill="#000000" fill-rule="nonzero" fill-opacity="1" /><path clip-path="url(#clip440)" d="M2182.34 1454.1 Q2178.73 1454.1 2176.9 1457.66 Q2175.09 1461.2 2175.09 1468.33 Q2175.09 1475.44 2176.9 1479.01 Q2178.73 1482.55 2182.34 1482.55 Q2185.97 1482.55 2187.78 1479.01 Q2189.61 1475.44 2189.61 1468.33 Q2189.61 1461.2 2187.78 1457.66 Q2185.97 1454.1 2182.34 1454.1 M2182.34 1450.39 Q2188.15 1450.39 2191.2 1455 Q2194.28 1459.58 2194.28 1468.33 Q2194.28 1477.06 2191.2 1481.67 Q2188.15 1486.25 2182.34 1486.25 Q2176.53 1486.25 2173.45 1481.67 Q2170.39 1477.06 2170.39 1468.33 Q2170.39 1459.58 2173.45 1455 Q2176.53 1450.39 2182.34 1450.39 Z" fill="#000000" fill-rule="nonzero" fill-opacity="1" /><path clip-path="url(#clip440)" d="M1294.91 1524.09 L1311.37 1568.04 L1305.16 1568.04 L1295.17 1541.69 L1282.88 1568.04 L1276.67 1568.04 L1292.3 1533.86 L1289.95 1527.56 Q1288.45 1523.55 1285.04 1523.55 L1281.99 1523.55 L1281.99 1518.52 L1285.71 1518.58 Q1292.91 1518.68 1294.91 1524.09 Z" fill="#000000" fill-rule="nonzero" fill-opacity="1" /><polyline clip-path="url(#clip442)" style="stroke:#000000; stroke-linecap:round; stroke-linejoin:round; stroke-width:2; stroke-opacity:0.1; fill:none" points="235.283,1266.07 2352.76,1266.07 "/>
<polyline clip-path="url(#clip442)" style="stroke:#000000; stroke-linecap:round; stroke-linejoin:round; stroke-width:2; stroke-opacity:0.1; fill:none" points="235.283,1057.37 2352.76,1057.37 "/>
<polyline clip-path="url(#clip442)" style="stroke:#000000; stroke-linecap:round; stroke-linejoin:round; stroke-width:2; stroke-opacity:0.1; fill:none" points="235.283,848.677 2352.76,848.677 "/>
<polyline clip-path="url(#clip442)" style="stroke:#000000; stroke-linecap:round; stroke-linejoin:round; stroke-width:2; stroke-opacity:0.1; fill:none" points="235.283,639.98 2352.76,639.98 "/>
<polyline clip-path="url(#clip442)" style="stroke:#000000; stroke-linecap:round; stroke-linejoin:round; stroke-width:2; stroke-opacity:0.1; fill:none" points="235.283,431.284 2352.76,431.284 "/>
<polyline clip-path="url(#clip442)" style="stroke:#000000; stroke-linecap:round; stroke-linejoin:round; stroke-width:2; stroke-opacity:0.1; fill:none" points="235.283,222.588 2352.76,222.588 "/>
<polyline clip-path="url(#clip440)" style="stroke:#000000; stroke-linecap:round; stroke-linejoin:round; stroke-width:4; stroke-opacity:1; fill:none" points="235.283,1423.18 235.283,47.2441 "/>
<polyline clip-path="url(#clip440)" style="stroke:#000000; stroke-linecap:round; stroke-linejoin:round; stroke-width:4; stroke-opacity:1; fill:none" points="235.283,1266.07 254.18,1266.07 "/>
<polyline clip-path="url(#clip440)" style="stroke:#000000; stroke-linecap:round; stroke-linejoin:round; stroke-width:4; stroke-opacity:1; fill:none" points="235.283,1057.37 254.18,1057.37 "/>
<polyline clip-path="url(#clip440)" style="stroke:#000000; stroke-linecap:round; stroke-linejoin:round; stroke-width:4; stroke-opacity:1; fill:none" points="235.283,848.677 254.18,848.677 "/>
<polyline clip-path="url(#clip440)" style="stroke:#000000; stroke-linecap:round; stroke-linejoin:round; stroke-width:4; stroke-opacity:1; fill:none" points="235.283,639.98 254.18,639.98 "/>
<polyline clip-path="url(#clip440)" style="stroke:#000000; stroke-linecap:round; stroke-linejoin:round; stroke-width:4; stroke-opacity:1; fill:none" points="235.283,431.284 254.18,431.284 "/>
<polyline clip-path="url(#clip440)" style="stroke:#000000; stroke-linecap:round; stroke-linejoin:round; stroke-width:4; stroke-opacity:1; fill:none" points="235.283,222.588 254.18,222.588 "/>
<path clip-path="url(#clip440)" d="M131.181 1264.71 Q134.538 1265.43 136.413 1267.7 Q138.311 1269.97 138.311 1273.3 Q138.311 1278.42 134.792 1281.22 Q131.274 1284.02 124.793 1284.02 Q122.617 1284.02 120.302 1283.58 Q118.01 1283.16 115.556 1282.31 L115.556 1277.79 Q117.501 1278.93 119.816 1279.51 Q122.13 1280.08 124.654 1280.08 Q129.052 1280.08 131.343 1278.35 Q133.658 1276.61 133.658 1273.3 Q133.658 1270.25 131.505 1268.53 Q129.376 1266.8 125.556 1266.8 L121.529 1266.8 L121.529 1262.96 L125.742 1262.96 Q129.191 1262.96 131.019 1261.59 Q132.848 1260.2 132.848 1257.61 Q132.848 1254.95 130.95 1253.53 Q129.075 1252.1 125.556 1252.1 Q123.635 1252.1 121.436 1252.52 Q119.237 1252.93 116.598 1253.81 L116.598 1249.65 Q119.26 1248.9 121.575 1248.53 Q123.913 1248.16 125.973 1248.16 Q131.297 1248.16 134.399 1250.59 Q137.501 1253 137.501 1257.12 Q137.501 1259.99 135.857 1261.98 Q134.214 1263.95 131.181 1264.71 Z" fill="#000000" fill-rule="nonzero" fill-opacity="1" /><path clip-path="url(#clip440)" d="M147.316 1282.63 L147.316 1278.37 Q149.075 1279.21 150.88 1279.65 Q152.686 1280.08 154.422 1280.08 Q159.052 1280.08 161.482 1276.98 Q163.936 1273.86 164.283 1267.52 Q162.94 1269.51 160.88 1270.57 Q158.82 1271.64 156.32 1271.64 Q151.135 1271.64 148.103 1268.51 Q145.093 1265.36 145.093 1259.92 Q145.093 1254.6 148.241 1251.38 Q151.39 1248.16 156.621 1248.16 Q162.616 1248.16 165.765 1252.77 Q168.936 1257.35 168.936 1266.1 Q168.936 1274.27 165.047 1279.16 Q161.181 1284.02 154.63 1284.02 Q152.871 1284.02 151.066 1283.67 Q149.26 1283.33 147.316 1282.63 M156.621 1267.98 Q159.769 1267.98 161.598 1265.83 Q163.45 1263.67 163.45 1259.92 Q163.45 1256.2 161.598 1254.04 Q159.769 1251.87 156.621 1251.87 Q153.473 1251.87 151.621 1254.04 Q149.792 1256.2 149.792 1259.92 Q149.792 1263.67 151.621 1265.83 Q153.473 1267.98 156.621 1267.98 Z" fill="#000000" fill-rule="nonzero" fill-opacity="1" /><path clip-path="url(#clip440)" d="M187.338 1251.87 Q183.727 1251.87 181.899 1255.43 Q180.093 1258.97 180.093 1266.1 Q180.093 1273.21 181.899 1276.77 Q183.727 1280.32 187.338 1280.32 Q190.973 1280.32 192.778 1276.77 Q194.607 1273.21 194.607 1266.1 Q194.607 1258.97 192.778 1255.43 Q190.973 1251.87 187.338 1251.87 M187.338 1248.16 Q193.149 1248.16 196.204 1252.77 Q199.283 1257.35 199.283 1266.1 Q199.283 1274.83 196.204 1279.44 Q193.149 1284.02 187.338 1284.02 Q181.528 1284.02 178.45 1279.44 Q175.394 1274.83 175.394 1266.1 Q175.394 1257.35 178.45 1252.77 Q181.528 1248.16 187.338 1248.16 Z" fill="#000000" fill-rule="nonzero" fill-opacity="1" /><path clip-path="url(#clip440)" d="M129.862 1044.17 L118.056 1062.62 L129.862 1062.62 L129.862 1044.17 M128.635 1040.09 L134.515 1040.09 L134.515 1062.62 L139.445 1062.62 L139.445 1066.5 L134.515 1066.5 L134.515 1074.65 L129.862 1074.65 L129.862 1066.5 L114.26 1066.5 L114.26 1061.99 L128.635 1040.09 Z" fill="#000000" fill-rule="nonzero" fill-opacity="1" /><path clip-path="url(#clip440)" d="M157.177 1043.17 Q153.566 1043.17 151.737 1046.74 Q149.931 1050.28 149.931 1057.41 Q149.931 1064.51 151.737 1068.08 Q153.566 1071.62 157.177 1071.62 Q160.811 1071.62 162.616 1068.08 Q164.445 1064.51 164.445 1057.41 Q164.445 1050.28 162.616 1046.74 Q160.811 1043.17 157.177 1043.17 M157.177 1039.47 Q162.987 1039.47 166.042 1044.07 Q169.121 1048.66 169.121 1057.41 Q169.121 1066.13 166.042 1070.74 Q162.987 1075.32 157.177 1075.32 Q151.366 1075.32 148.288 1070.74 Q145.232 1066.13 145.232 1057.41 Q145.232 1048.66 148.288 1044.07 Q151.366 1039.47 157.177 1039.47 Z" fill="#000000" fill-rule="nonzero" fill-opacity="1" /><path clip-path="url(#clip440)" d="M187.338 1043.17 Q183.727 1043.17 181.899 1046.74 Q180.093 1050.28 180.093 1057.41 Q180.093 1064.51 181.899 1068.08 Q183.727 1071.62 187.338 1071.62 Q190.973 1071.62 192.778 1068.08 Q194.607 1064.51 194.607 1057.41 Q194.607 1050.28 192.778 1046.74 Q190.973 1043.17 187.338 1043.17 M187.338 1039.47 Q193.149 1039.47 196.204 1044.07 Q199.283 1048.66 199.283 1057.41 Q199.283 1066.13 196.204 1070.74 Q193.149 1075.32 187.338 1075.32 Q181.528 1075.32 178.45 1070.74 Q175.394 1066.13 175.394 1057.41 Q175.394 1048.66 178.45 1044.07 Q181.528 1039.47 187.338 1039.47 Z" fill="#000000" fill-rule="nonzero" fill-opacity="1" /><path clip-path="url(#clip440)" d="M129.862 835.471 L118.056 853.92 L129.862 853.92 L129.862 835.471 M128.635 831.397 L134.515 831.397 L134.515 853.92 L139.445 853.92 L139.445 857.808 L134.515 857.808 L134.515 865.957 L129.862 865.957 L129.862 857.808 L114.26 857.808 L114.26 853.295 L128.635 831.397 Z" fill="#000000" fill-rule="nonzero" fill-opacity="1" /><path clip-path="url(#clip440)" d="M147.987 862.021 L155.626 862.021 L155.626 835.656 L147.316 837.322 L147.316 833.063 L155.579 831.397 L160.255 831.397 L160.255 862.021 L167.894 862.021 L167.894 865.957 L147.987 865.957 L147.987 862.021 Z" fill="#000000" fill-rule="nonzero" fill-opacity="1" /><path clip-path="url(#clip440)" d="M187.338 834.475 Q183.727 834.475 181.899 838.04 Q180.093 841.582 180.093 848.711 Q180.093 855.818 181.899 859.382 Q183.727 862.924 187.338 862.924 Q190.973 862.924 192.778 859.382 Q194.607 855.818 194.607 848.711 Q194.607 841.582 192.778 838.04 Q190.973 834.475 187.338 834.475 M187.338 830.772 Q193.149 830.772 196.204 835.378 Q199.283 839.961 199.283 848.711 Q199.283 857.438 196.204 862.045 Q193.149 866.628 187.338 866.628 Q181.528 866.628 178.45 862.045 Q175.394 857.438 175.394 848.711 Q175.394 839.961 178.45 835.378 Q181.528 830.772 187.338 830.772 Z" fill="#000000" fill-rule="nonzero" fill-opacity="1" /><path clip-path="url(#clip440)" d="M129.862 626.774 L118.056 645.223 L129.862 645.223 L129.862 626.774 M128.635 622.7 L134.515 622.7 L134.515 645.223 L139.445 645.223 L139.445 649.112 L134.515 649.112 L134.515 657.26 L129.862 657.26 L129.862 649.112 L114.26 649.112 L114.26 644.598 L128.635 622.7 Z" fill="#000000" fill-rule="nonzero" fill-opacity="1" /><path clip-path="url(#clip440)" d="M151.204 653.325 L167.524 653.325 L167.524 657.26 L145.579 657.26 L145.579 653.325 Q148.241 650.571 152.825 645.941 Q157.431 641.288 158.612 639.946 Q160.857 637.423 161.737 635.686 Q162.64 633.927 162.64 632.237 Q162.64 629.483 160.695 627.747 Q158.774 626.011 155.672 626.011 Q153.473 626.011 151.019 626.774 Q148.589 627.538 145.811 629.089 L145.811 624.367 Q148.635 623.233 151.089 622.654 Q153.542 622.075 155.579 622.075 Q160.95 622.075 164.144 624.761 Q167.339 627.446 167.339 631.937 Q167.339 634.066 166.528 635.987 Q165.741 637.886 163.635 640.478 Q163.056 641.149 159.954 644.367 Q156.853 647.561 151.204 653.325 Z" fill="#000000" fill-rule="nonzero" fill-opacity="1" /><path clip-path="url(#clip440)" d="M187.338 625.779 Q183.727 625.779 181.899 629.344 Q180.093 632.886 180.093 640.015 Q180.093 647.122 181.899 650.686 Q183.727 654.228 187.338 654.228 Q190.973 654.228 192.778 650.686 Q194.607 647.122 194.607 640.015 Q194.607 632.886 192.778 629.344 Q190.973 625.779 187.338 625.779 M187.338 622.075 Q193.149 622.075 196.204 626.682 Q199.283 631.265 199.283 640.015 Q199.283 648.742 196.204 653.348 Q193.149 657.932 187.338 657.932 Q181.528 657.932 178.45 653.348 Q175.394 648.742 175.394 640.015 Q175.394 631.265 178.45 626.682 Q181.528 622.075 187.338 622.075 Z" fill="#000000" fill-rule="nonzero" fill-opacity="1" /><path clip-path="url(#clip440)" d="M129.862 418.078 L118.056 436.527 L129.862 436.527 L129.862 418.078 M128.635 414.004 L134.515 414.004 L134.515 436.527 L139.445 436.527 L139.445 440.416 L134.515 440.416 L134.515 448.564 L129.862 448.564 L129.862 440.416 L114.26 440.416 L114.26 435.902 L128.635 414.004 Z" fill="#000000" fill-rule="nonzero" fill-opacity="1" /><path clip-path="url(#clip440)" d="M161.343 429.93 Q164.7 430.648 166.575 432.916 Q168.473 435.185 168.473 438.518 Q168.473 443.634 164.954 446.435 Q161.436 449.236 154.954 449.236 Q152.778 449.236 150.464 448.796 Q148.172 448.379 145.718 447.523 L145.718 443.009 Q147.663 444.143 149.978 444.722 Q152.292 445.3 154.815 445.3 Q159.214 445.3 161.505 443.564 Q163.82 441.828 163.82 438.518 Q163.82 435.463 161.667 433.75 Q159.538 432.014 155.718 432.014 L151.691 432.014 L151.691 428.171 L155.903 428.171 Q159.353 428.171 161.181 426.805 Q163.01 425.416 163.01 422.824 Q163.01 420.162 161.112 418.75 Q159.237 417.315 155.718 417.315 Q153.797 417.315 151.598 417.731 Q149.399 418.148 146.76 419.027 L146.76 414.861 Q149.422 414.12 151.737 413.75 Q154.075 413.379 156.135 413.379 Q161.459 413.379 164.561 415.81 Q167.663 418.217 167.663 422.338 Q167.663 425.208 166.019 427.199 Q164.376 429.166 161.343 429.93 Z" fill="#000000" fill-rule="nonzero" fill-opacity="1" /><path clip-path="url(#clip440)" d="M187.338 417.083 Q183.727 417.083 181.899 420.648 Q180.093 424.189 180.093 431.319 Q180.093 438.426 181.899 441.99 Q183.727 445.532 187.338 445.532 Q190.973 445.532 192.778 441.99 Q194.607 438.426 194.607 431.319 Q194.607 424.189 192.778 420.648 Q190.973 417.083 187.338 417.083 M187.338 413.379 Q193.149 413.379 196.204 417.986 Q199.283 422.569 199.283 431.319 Q199.283 440.046 196.204 444.652 Q193.149 449.236 187.338 449.236 Q181.528 449.236 178.45 444.652 Q175.394 440.046 175.394 431.319 Q175.394 422.569 178.45 417.986 Q181.528 413.379 187.338 413.379 Z" fill="#000000" fill-rule="nonzero" fill-opacity="1" /><path clip-path="url(#clip440)" d="M129.862 209.382 L118.056 227.831 L129.862 227.831 L129.862 209.382 M128.635 205.308 L134.515 205.308 L134.515 227.831 L139.445 227.831 L139.445 231.72 L134.515 231.72 L134.515 239.868 L129.862 239.868 L129.862 231.72 L114.26 231.72 L114.26 227.206 L128.635 205.308 Z" fill="#000000" fill-rule="nonzero" fill-opacity="1" /><path clip-path="url(#clip440)" d="M160.024 209.382 L148.218 227.831 L160.024 227.831 L160.024 209.382 M158.797 205.308 L164.677 205.308 L164.677 227.831 L169.607 227.831 L169.607 231.72 L164.677 231.72 L164.677 239.868 L160.024 239.868 L160.024 231.72 L144.422 231.72 L144.422 227.206 L158.797 205.308 Z" fill="#000000" fill-rule="nonzero" fill-opacity="1" /><path clip-path="url(#clip440)" d="M187.338 208.387 Q183.727 208.387 181.899 211.952 Q180.093 215.493 180.093 222.623 Q180.093 229.729 181.899 233.294 Q183.727 236.836 187.338 236.836 Q190.973 236.836 192.778 233.294 Q194.607 229.729 194.607 222.623 Q194.607 215.493 192.778 211.952 Q190.973 208.387 187.338 208.387 M187.338 204.683 Q193.149 204.683 196.204 209.29 Q199.283 213.873 199.283 222.623 Q199.283 231.35 196.204 235.956 Q193.149 240.54 187.338 240.54 Q181.528 240.54 178.45 235.956 Q175.394 231.35 175.394 222.623 Q175.394 213.873 178.45 209.29 Q181.528 204.683 187.338 204.683 Z" fill="#000000" fill-rule="nonzero" fill-opacity="1" /><path clip-path="url(#clip440)" d="M22.818 766.086 L46.4666 774.807 L46.4666 757.333 L22.818 766.086 M16.4842 769.714 L16.4842 762.425 L64.0042 744.315 L64.0042 750.999 L51.8138 755.328 L51.8138 776.748 L64.0042 781.077 L64.0042 787.856 L16.4842 769.714 Z" fill="#000000" fill-rule="nonzero" fill-opacity="1" /><path clip-path="url(#clip440)" d="M16.4842 737.376 L16.4842 730.947 L64.0042 730.947 L64.0042 737.376 L16.4842 737.376 Z" fill="#000000" fill-rule="nonzero" fill-opacity="1" /><path clip-path="url(#clip440)" d="M20.1444 682.568 L26.9239 682.568 Q23.9002 685.814 22.4043 689.506 Q20.9083 693.166 20.9083 697.304 Q20.9083 705.452 25.9054 709.781 Q30.8707 714.11 40.2919 714.11 Q49.6813 714.11 54.6784 709.781 Q59.6436 705.452 59.6436 697.304 Q59.6436 693.166 58.1477 689.506 Q56.6518 685.814 53.6281 682.568 L60.3439 682.568 Q62.6355 685.941 63.7814 689.729 Q64.9272 693.485 64.9272 697.686 Q64.9272 708.476 58.3387 714.683 Q51.7183 720.889 40.2919 720.889 Q28.8336 720.889 22.2451 714.683 Q15.6248 708.476 15.6248 697.686 Q15.6248 693.421 16.7706 689.665 Q17.8846 685.878 20.1444 682.568 Z" fill="#000000" fill-rule="nonzero" fill-opacity="1" /><polyline clip-path="url(#clip442)" style="stroke:#009af9; stroke-linecap:round; stroke-linejoin:round; stroke-width:4; stroke-opacity:1; fill:none" points="295.211,751.556 318.607,760.688 318.607,885.905 318.607,927.645 326.405,912.547 326.405,954.286 342.002,929.68 342.002,1096.64 342.002,1180.11 342.002,1221.85 342.002,1305.33 365.398,1062.17 365.398,1103.91 365.398,1145.65 365.398,1229.13 365.398,1270.87 377.096,1176.92 377.096,1218.65 388.793,1131.1 388.793,1172.84 388.793,1214.58 388.793,1339.8 388.793,1381.54 396.592,1342.82 404.39,1305.47 412.189,1272.32 412.189,1314.06 415.531,1327.16 419.987,1332.75 426.226,1326.87 435.584,1300.76 435.584,1342.5 435.584,1384.24 463.659,1275.62 477.696,1252.18 489.06,1244.15 529.166,1209.07 580.211,1148.06 622.748,1136.89 629.433,1170.5 653.942,1192.9 706.972,1192.4 763.121,1206.04 887.897,1178.66 1402.6,842.326 1680.23,620.594 1745.73,602.767 2292.83,86.1857 "/>
</svg>
